<svg width="43" height="43" viewBox="0 0 43 43" fill="none" xmlns="http://www.w3.org/2000/svg">
<path d="M20.8521 5.72229C17.6426 5.8905 14.555 7.00667 11.9798 8.92965C9.40462 10.8526 7.4575 13.4961 6.38466 16.5257C5.31182 19.5553 5.16146 22.835 5.95258 25.95C6.74371 29.0651 8.44079 31.8756 10.8292 34.0261C13.2176 36.1767 16.1901 37.5707 19.3708 38.0319C22.5515 38.493 25.7975 38.0007 28.6984 36.617C31.5993 35.2334 34.0247 33.0206 35.6679 30.2585C37.3112 27.4964 38.0985 24.3091 37.9303 21.0996C37.7 16.7975 35.7725 12.7624 32.5709 9.87958C29.3692 6.99678 25.1547 5.50169 20.8521 5.72229ZM29.5286 14.9878L25.6529 24.9139C25.5393 25.205 25.3207 25.4429 25.0403 25.5808L15.9805 30.0386C15.7564 30.1489 15.5043 30.1895 15.2568 30.1552C15.0094 30.1209 14.7779 30.0132 14.5922 29.846C14.4066 29.6789 14.2752 29.4599 14.2152 29.2174C14.1552 28.9749 14.1692 28.72 14.2555 28.4855L17.7417 19.0092C17.8493 18.7168 18.0623 18.4752 18.3387 18.3316L27.788 13.4239C28.0136 13.3067 28.2696 13.2611 28.5218 13.2932C28.774 13.3252 29.0105 13.4335 29.1996 13.6034C29.3887 13.7733 29.5215 13.9968 29.5803 14.2442C29.6391 14.4916 29.621 14.7509 29.5286 14.9878Z" fill="url(#paint0_linear_15574_2191)"/>
<defs>
<linearGradient id="paint0_linear_15574_2191" x1="2.73916" y1="5.28841" x2="45.5191" y2="12.4227" gradientUnits="userSpaceOnUse">
<stop stop-color="#176FEB"/>
<stop offset="1" stop-color="#FF80FF"/>
</linearGradient>
</defs>
</svg>
