<svg width="16" height="17" viewBox="0 0 16 17" fill="none" xmlns="http://www.w3.org/2000/svg">
<path d="M7.67063 12.2696C7.70733 12.3407 7.75644 12.3988 7.81372 12.4389C7.871 12.479 7.93475 12.5 7.99946 12.5C8.06417 12.5 8.12791 12.479 8.1852 12.4389C8.24248 12.3988 8.29158 12.3407 8.32828 12.2696L11.9286 5.33674C11.9702 5.25678 11.9947 5.16312 11.9992 5.06594C12.0038 4.96876 11.9883 4.87177 11.9544 4.78552C11.9205 4.69927 11.8695 4.62706 11.807 4.57672C11.7445 4.52638 11.6728 4.49985 11.5997 4.5H4.39918C4.32631 4.5004 4.2549 4.52728 4.19263 4.57774C4.13036 4.62819 4.07959 4.70033 4.04578 4.78638C4.01196 4.87243 3.99638 4.96914 4.00071 5.06611C4.00504 5.16308 4.02912 5.25665 4.07035 5.33674L7.67063 12.2696Z" fill="black"/>
</svg>
