<svg width="41" height="40" viewBox="0 0 41 40" fill="none" xmlns="http://www.w3.org/2000/svg">
<path d="M23.8462 21.7537L32.5706 18.5811C33.0509 18.4065 33.4661 18.0889 33.7603 17.671C34.0546 17.2532 34.2137 16.7552 34.2162 16.2442C34.2188 15.7331 34.0647 15.2336 33.7746 14.8128C33.4846 14.3921 33.0726 14.0703 32.5941 13.8909L8.33824 4.79496C7.88879 4.62639 7.4003 4.59078 6.93116 4.6924C6.46201 4.79401 6.03203 5.02855 5.69261 5.36799C5.35319 5.70743 5.11867 6.13741 5.01708 6.60656C4.91549 7.07572 4.95111 7.5642 5.11971 8.01365V8.01357L14.2156 32.2694C14.3915 32.7476 14.7106 33.16 15.1293 33.4503C15.5481 33.7406 16.0462 33.8947 16.5557 33.8916H16.5688C17.0806 33.8922 17.5801 33.7344 17.9985 33.4397C18.417 33.145 18.7339 32.728 18.9059 32.246L22.0784 23.5216L31.9405 33.3837C32.175 33.6181 32.4929 33.7498 32.8245 33.7498C33.156 33.7498 33.474 33.6181 33.7084 33.3837C33.9429 33.1492 34.0746 32.8313 34.0746 32.4997C34.0746 32.1682 33.9429 31.8502 33.7084 31.6158L23.8462 21.7537Z" fill="url(#paint0_linear_15574_2819)"/>
<defs>
<linearGradient id="paint0_linear_15574_2819" x1="3.32624" y1="3.39237" x2="41.447" y2="11.8211" gradientUnits="userSpaceOnUse">
<stop stop-color="#176FEB"/>
<stop offset="1" stop-color="#FF80FF"/>
</linearGradient>
</defs>
</svg>
