<svg width="43" height="43" viewBox="0 0 43 43" fill="none" xmlns="http://www.w3.org/2000/svg">
<path d="M33.9977 25.0838C33.9741 25.5954 33.7926 26.0871 33.4782 26.4913C33.1637 26.8955 32.7317 27.1923 32.2416 27.3409L23.9456 29.9128L20.5205 37.8946C20.3188 38.3645 19.9779 38.7612 19.5437 39.0313C19.1095 39.3014 18.6029 39.4319 18.0922 39.4051C17.5816 39.3784 17.0914 39.1957 16.6878 38.8816C16.2842 38.5676 15.9866 38.1374 15.8352 37.649L13.2632 29.353L5.28149 25.928C4.81159 25.7263 4.41484 25.3853 4.14473 24.9511C3.87462 24.5169 3.74416 24.0103 3.77092 23.4997C3.79768 22.989 3.98039 22.4989 4.2944 22.0953C4.60841 21.6917 5.03863 21.3941 5.52704 21.2426L13.823 18.6706L17.2481 10.6889C17.4498 10.219 17.7907 9.82228 18.2249 9.55217C18.6591 9.28207 19.1657 9.1516 19.6764 9.17836C20.187 9.20512 20.6772 9.38783 21.0808 9.70184C21.4844 10.0159 21.782 10.4461 21.9334 10.9345L24.5054 19.2305L32.4871 22.6555C32.959 22.8545 33.3576 23.1949 33.6281 23.6297C33.8986 24.0646 34.0277 24.5726 33.9977 25.0838ZM25.9108 9.6394L28.4073 9.77024L28.2765 12.2668C28.2592 12.5979 28.374 12.9223 28.5959 13.1686C28.8177 13.415 29.1283 13.5632 29.4594 13.5805C29.7904 13.5979 30.1148 13.483 30.3612 13.2612C30.6076 13.0393 30.7557 12.7287 30.7731 12.3977L30.9039 9.90108L33.4005 10.0319C33.7316 10.0493 34.056 9.9344 34.3023 9.71257C34.5487 9.49073 34.6969 9.18012 34.7142 8.84905C34.7316 8.51799 34.6167 8.19359 34.3948 7.94722C34.173 7.70085 33.8624 7.5527 33.5313 7.53535L31.0348 7.40451L31.1656 4.90793C31.183 4.57687 31.0681 4.25247 30.8462 4.0061C30.6244 3.75973 30.3138 3.61158 29.9827 3.59423C29.6517 3.57688 29.3273 3.69175 29.0809 3.91358C28.8345 4.13541 28.6864 4.44603 28.669 4.77709L28.5382 7.27367L26.0416 7.14283C25.7105 7.12548 25.3861 7.24035 25.1398 7.46218C24.8934 7.68401 24.7453 7.99463 24.7279 8.32569C24.7106 8.65676 24.8254 8.98116 25.0473 9.22753C25.2691 9.4739 25.5797 9.62205 25.9108 9.6394ZM39.3803 15.3522L38.132 15.2867L38.1974 14.0385C38.2147 13.7074 38.0999 13.383 37.878 13.1366C37.6562 12.8903 37.3456 12.7421 37.0145 12.7248C36.6835 12.7074 36.3591 12.8223 36.1127 13.0441C35.8663 13.2659 35.7182 13.5766 35.7008 13.9076L35.6354 15.1559L34.3871 15.0905C34.056 15.0731 33.7316 15.188 33.4853 15.4098C33.2389 15.6317 33.0907 15.9423 33.0734 16.2734C33.056 16.6044 33.1709 16.9288 33.3928 17.1752C33.6146 17.4216 33.9252 17.5697 34.2563 17.5871L35.5046 17.6525L35.4391 18.9008C35.4218 19.2318 35.5367 19.5562 35.7585 19.8026C35.9803 20.049 36.2909 20.1971 36.622 20.2145C36.9531 20.2318 37.2775 20.117 37.5238 19.8951C37.7702 19.6733 37.9184 19.3627 37.9357 19.0316L38.0011 17.7833L39.2494 17.8487C39.5805 17.8661 39.9049 17.7512 40.1512 17.5294C40.3976 17.3076 40.5458 16.9969 40.5631 16.6659C40.5805 16.3348 40.4656 16.0104 40.2438 15.764C40.0219 15.5177 39.7113 15.3695 39.3803 15.3522Z" fill="url(#paint0_linear_15574_935)"/>
<defs>
<linearGradient id="paint0_linear_15574_935" x1="2.93438" y1="0.628236" x2="49.7298" y2="13.5776" gradientUnits="userSpaceOnUse">
<stop stop-color="#176FEB"/>
<stop offset="1" stop-color="#FF80FF"/>
</linearGradient>
</defs>
</svg>
